# File created by Blade
# Date/Time:  Wed Jan 21 19:19:27 2015
#---------------------------------------------------------
:version 1.10
:name HOM
:units
  mass 1.0
  length 1.000000
  angle deg
:documentation
     Acclaim Skeleton File
:root
   axis xyz
   order TX TY TZ RX RY RZ
   position 0.000000 0.000000 0.000000
   orientation 0 0 0
:bonedata
   begin
      id 1
      name RightUpLeg_dum
      direction -1.000000 0.000000 0.000000
      length 3.693983
      axis 0.0 0.0 0.0 xyz
   end
   begin
      id 2
      name LeftUpLeg_dum
      direction 1.000000 0.000000 0.000000
      length 3.693983
      axis 0.0 0.0 0.0 xyz
   end
   begin
      id 3
      name Spine_dum
      direction 0.000000 1.000000 0.000000
      length 2.392956
      axis 0.0 0.0 0.0 xyz
   end
   begin
      id 4
      name RightUpLeg
      direction 0.000000 -1.000000 0.000000
      length 15.795667
      axis 0.0 0.0 0.0 xyz
      dof rx ry rz
   end
   begin
      id 5
      name RightLeg
      direction 0.000000 -1.000000 0.000000
      length 14.766989
      axis 0.0 0.0 0.0 xyz
      dof rx ry rz
   end
   begin
      id 6
      name RightFoot
      direction 0.000000 -0.258819 0.965926
      length 4.962790
      axis 15.0 0.0 0.0 xyz
      dof rx ry rz
   end
   begin
      id 7
      name RightToeBase
      direction 0.000000 0.000000 1.000000
      length 2.952750
      axis 0.0 0.0 0.0 xyz
      dof rx ry rz
   end
   begin
      id 8
      name LeftUpLeg
      direction 0.000000 -1.000000 0.000000
      length 15.795667
      axis 0.0 0.0 0.0 xyz
      dof rx ry rz
   end
   begin
      id 9
      name LeftLeg
      direction 0.000000 -1.000000 0.000000
      length 14.766989
      axis 0.0 0.0 0.0 xyz
      dof rx ry rz
   end
   begin
      id 10
      name LeftFoot
      direction 0.000000 -0.258819 0.965926
      length 4.962790
      axis 15.0 0.0 0.0 xyz
      dof rx ry rz
   end
   begin
      id 11
      name LeftToeBase
      direction 0.000000 0.000000 1.000000
      length 2.952750
      axis 0.0 0.0 0.0 xyz
      dof rx ry rz
   end
   begin
      id 12
      name Spine
      direction 0.000000 1.000000 0.000000
      length 0.000000
      axis 0.0 0.0 0.0 xyz
      dof rx ry rz
   end
   begin
      id 13
      name Spine_dum1
      direction 0.000000 1.000000 0.000000
      length 13.207411
      axis 0.0 0.0 0.0 xyz
   end
   begin
      id 14
      name Spine_dum2
      direction 0.000000 1.000000 0.000000
      length 13.207411
      axis 0.0 0.0 0.0 xyz
   end
   begin
      id 15
      name Spine_dum3
      direction 0.000000 1.000000 0.000000
      length 19.250100
      axis 0.0 0.0 0.0 xyz
   end
   begin
      id 16
      name RightShoulder
      direction -1.000000 0.000000 0.000000
      length 8.140465
      axis 0.0 0.0 90.0 xyz
      dof rx ry rz
   end
   begin
      id 17
      name RightArm
      direction -1.000000 0.000000 0.000000
      length 10.649840
      axis 0.0 0.0 90.0 xyz
      dof rx ry rz
   end
   begin
      id 18
      name RightForeArm
      direction -1.000000 0.000000 0.000000
      length 8.304624
      axis 0.0 0.0 90.0 xyz
      dof ry rz rx
   end
   begin
      id 19
      name RightHand
      direction -1.000000 0.000000 0.000000
      length 0.000000
      axis 0.0 0.0 90.0 xyz
      dof rx ry rz
   end
   begin
      id 20
      name RightHand_dum1
      direction -1.000000 0.000000 0.000000
      length 3.937000
      axis 0.0 0.0 90.0 xyz
   end
   begin
      id 21
      name RightHand_dum2
      direction 0.000000 0.000000 0.000000
      length 0.000000
      axis 0.0 0.0 90.0 xyz
   end
   begin
      id 22
      name RightHandThumb1
      direction 0.000000 0.000000 1.000000
      length 3.937000
      axis 0.0 0.0 90.0 xyz
      dof rx rz ry
   end
   begin
      id 23
      name LeftShoulder
      direction 1.000000 0.000000 0.000000
      length 8.140465
      axis 0.0 0.0 -90.0 xyz
      dof rx ry rz
   end
   begin
      id 24
      name LeftArm
      direction 1.000000 0.000000 0.000000
      length 10.649840
      axis 0.0 0.0 -90.0 xyz
      dof rx ry rz
   end
   begin
      id 25
      name LeftForeArm
      direction 1.000000 0.000000 0.000000
      length 8.304624
      axis 0.0 0.0 -90.0 xyz
      dof ry rz rx
   end
   begin
      id 26
      name LeftHand
      direction 1.000000 0.000000 0.000000
      length 0.000000
      axis 0.0 0.0 -90.0 xyz
      dof rx ry rz
   end
   begin
      id 27
      name LeftHand_dum1
      direction 1.000000 0.000000 0.000000
      length 3.937000
      axis 0.0 0.0 -90.0 xyz
   end
   begin
      id 28
      name LeftHand_dum2
      direction 0.000000 0.000000 0.000000
      length 0.000000
      axis 0.0 0.0 -90.0 xyz
   end
   begin
      id 29
      name LeftHandThumb1
      direction 0.000000 0.000000 1.000000
      length 3.937000
      axis 0.0 0.0 -90.0 xyz
      dof rx rz ry
   end
   begin
      id 30
      name Head
      direction 0.000000 1.000000 0.000000
      length 4.527550
      axis 0.0 0.0 0.0 xyz
      dof rx ry rz
   end
:hierarchy
   begin
      root RightUpLeg_dum LeftUpLeg_dum Spine_dum
      RightUpLeg_dum RightUpLeg
      LeftUpLeg_dum LeftUpLeg
      Spine_dum Spine
      RightUpLeg RightLeg
      RightLeg RightFoot
      RightFoot RightToeBase
      LeftUpLeg LeftLeg
      LeftLeg LeftFoot
      LeftFoot LeftToeBase
      Spine Spine_dum1 Spine_dum2 Spine_dum3
      Spine_dum1 RightShoulder
      Spine_dum2 LeftShoulder
      Spine_dum3 Head
      RightShoulder RightArm
      RightArm RightForeArm
      RightForeArm RightHand
      RightHand RightHand_dum1 RightHand_dum2
      RightHand_dum2 RightHandThumb1
      LeftShoulder LeftArm
      LeftArm LeftForeArm
      LeftForeArm LeftHand
      LeftHand LeftHand_dum1 LeftHand_dum2
      LeftHand_dum2 LeftHandThumb1
   end

# File created by Blade
# Date/Time:  Wed Jan 21 19:19:18 2015
# Frame Rate: 120.000 fps
#------------------------------------------------------
:FULLY-SPECIFIED
:DEGREES
123
root -7.989158 30.022452 -2.895806 56.487232 -13.639160 12.186223
RightUpLeg -95.406275 -33.504072 13.359393
RightLeg 45.140483 -0.000000 -0.000000
RightFoot -16.536282 6.517757 28.855129
RightToeBase 17.717066 -0.000000 -0.000000
LeftUpLeg -58.387702 25.116324 -4.710640
LeftLeg 5.959726 -0.000000 -0.000000
LeftFoot 16.590117 0.191330 -8.235022
LeftToeBase 6.204470 -0.000000 -0.000000
Spine -39.203463 8.360443 4.643022
RightShoulder -11.714640 15.452172 -30.387012
RightArm 0.862648 -21.253337 74.641229
RightForeArm 15.695204 0.000000 0.942949
RightHand 15.459758 -0.000000 -8.017826
RightHandThumb1 -24.326973 -0.000000 -32.862282
LeftShoulder -11.069761 9.909134 29.126592
LeftArm 9.643899 7.131739 -83.612150
LeftForeArm 3.723304 -0.000000 0.448300
LeftHand -19.645950 -0.000000 1.411733
LeftHandThumb1 -26.253704 0.000000 33.147579
Head 7.575011 1.854691 1.721695
124
root -7.922953 29.894531 -2.941281 56.731300 -13.661451 12.214369
RightUpLeg -96.455984 -33.567342 13.562066
RightLeg 46.190603 -0.000000 -0.000000
RightFoot -16.760342 6.749792 28.792007
RightToeBase 17.765979 -0.000000 -0.000000
LeftUpLeg -58.652007 25.079373 -4.445749
LeftLeg 6.134008 -0.000000 -0.000000
LeftFoot 17.046946 1.268883 -9.153267
LeftToeBase 4.072763 -0.000000 -0.000000
Spine -39.167055 8.469859 4.955125
RightShoulder -11.606206 15.521575 -30.259818
RightArm 1.016730 -21.454092 74.399127
RightForeArm 15.813691 -0.000000 1.042224
RightHand 15.728760 -0.000000 -8.324934
RightHandThumb1 -24.326973 -0.000000 -32.862282
LeftShoulder -10.992172 9.894375 29.243961
LeftArm 9.686379 7.060333 -83.482875
LeftForeArm 3.693155 -0.000000 0.363076
LeftHand -19.648475 -0.000000 1.166148
LeftHandThumb1 -26.253704 0.000000 33.147579
Head 7.383898 1.918705 1.619322
125
root -7.846274 29.763076 -2.977802 56.919169 -13.769506 12.288950
RightUpLeg -97.457794 -33.663546 13.653715
RightLeg 47.212383 -0.000000 -0.000000
RightFoot -16.941779 7.038343 28.795564
RightToeBase 17.694856 -0.000000 -0.000000
LeftUpLeg -58.813767 25.032818 -4.291270
LeftLeg 6.217824 -0.000000 -0.000000
LeftFoot 17.526407 1.816076 -9.209936
LeftToeBase 1.808298 -0.000000 -0.000000
Spine -39.112053 8.560073 5.180257
RightShoulder -11.504374 15.512428 -30.101493
RightArm 1.285861 -21.501911 74.123049
RightForeArm 15.990266 -0.000000 1.125305
RightHand 15.649402 -0.000000 -8.363392
RightHandThumb1 -24.326973 -0.000000 -32.862282
LeftShoulder -10.954824 9.770319 29.387314
LeftArm 9.618181 7.057004 -83.367998
LeftForeArm 3.584455 -0.000000 0.238934
LeftHand -19.537375 -0.000000 1.010042
LeftHandThumb1 -26.253704 0.000000 33.147579
Head 7.222428 2.010546 1.564075
126
root -7.763497 29.630246 -3.016644 57.189097 -13.875343 12.323490
RightUpLeg -98.529628 -33.721204 13.843024
RightLeg 48.177962 -0.000000 -0.000000
RightFoot -17.117691 7.382991 28.811326
RightToeBase 17.775431 -0.000000 -0.000000
LeftUpLeg -59.048877 24.973519 -4.097856
LeftLeg 6.353273 -0.000000 -0.000000
LeftFoot 17.697354 2.091538 -9.274378
LeftToeBase 0.406376 -0.000000 -0.000000
Spine -39.120442 8.683433 5.411746
RightShoulder -11.421777 15.607191 -29.972448
RightArm 1.424742 -21.565649 73.902969
RightForeArm 16.279016 -0.000000 1.234689
RightHand 15.535962 0.000000 -8.322827
RightHandThumb1 -24.326973 -0.000000 -32.862282
LeftShoulder -10.918417 9.706679 29.536503
LeftArm 9.648602 6.961481 -83.273364
LeftForeArm 3.527141 -0.000000 0.084865
LeftHand -19.513738 -0.000000 0.885225
LeftHandThumb1 -26.253704 0.000000 33.147579
Head 7.031218 2.098794 1.535343
127
root -7.672397 29.494593 -3.058667 57.454056 -14.120575 12.398881
RightUpLeg -99.618126 -33.734412 13.855997
RightLeg 49.148844 -0.000000 -0.000000
RightFoot -17.257384 7.649674 28.836324
RightToeBase 17.833687 -0.000000 -0.000000
LeftUpLeg -59.203147 24.872830 -3.928399
LeftLeg 6.490151 -0.000000 -0.000000
LeftFoot 17.454505 2.442082 -9.948584
LeftToeBase -1.660336 -0.000000 0.000000
Spine -39.132719 8.827025 5.482676
RightShoulder -11.361969 15.797895 -29.848964
RightArm 1.489548 -21.461107 73.717373
RightForeArm 16.265521 -0.000000 1.314252
RightHand 15.391809 -0.000000 -8.150681
RightHandThumb1 -24.326973 -0.000000 -32.862282
LeftShoulder -10.866230 9.640493 29.703820
LeftArm 9.709387 6.978897 -83.128506
LeftForeArm 3.383344 0.000000 -0.097418
LeftHand -19.516592 -0.000000 0.717666
LeftHandThumb1 -26.253704 0.000000 33.147579
Head 6.864509 2.196981 1.539240
128
root -7.579634 29.358127 -3.102185 57.748151 -14.377707 12.317783
RightUpLeg -100.634196 -33.627814 13.983159
RightLeg 49.983806 -0.000000 -0.000000
RightFoot -17.350379 7.903087 28.835925
RightToeBase 17.952837 -0.000000 -0.000000
LeftUpLeg -59.383255 24.903843 -3.696179
LeftLeg 6.713510 -0.000000 -0.000000
LeftFoot 16.439324 2.930972 -11.490204
LeftToeBase -2.909241 -0.000000 0.000000
Spine -39.112841 9.057350 5.642728
RightShoulder -11.308581 15.824995 -29.673352
RightArm 1.779625 -21.418968 73.472249
RightForeArm 16.531696 -0.000000 1.404750
RightHand 15.508224 -0.000000 -8.007283
RightHandThumb1 -24.326973 -0.000000 -32.862282
LeftShoulder -10.813017 9.520963 29.895154
LeftArm 9.667828 6.944180 -83.012780
LeftForeArm 3.182997 -0.000000 -0.223340
LeftHand -19.520515 -0.000000 0.659083
LeftHandThumb1 -26.253704 0.000000 33.147579
Head 6.665792 2.306111 1.581415
